<svg width="59" height="59" viewBox="0 0 59 59" fill="none" xmlns="http://www.w3.org/2000/svg">
<g clip-path="url(#clip0)">
<path d="M29.4975 0C13.205 0.00144231 -0.00144219 13.2102 1.18127e-07 29.5025C0.00144243 45.7949 13.2102 59.0013 29.5025 59C45.7939 58.9986 59 45.7913 59 29.5C58.9816 13.2142 45.7832 0.0169471 29.4975 0Z" fill="black"/>
<path d="M24.3846 46.1794C23.6766 46.1808 23.1016 45.6077 23.1003 44.8996C23.0997 44.5583 23.2352 44.2308 23.4769 43.9897L37.959 29.5127L23.4769 15.0359C22.9851 14.5267 22.9992 13.715 23.5084 13.2231C24.0053 12.7433 24.7929 12.7433 25.2897 13.2231L40.6743 28.6077C41.1748 29.1083 41.1748 29.9198 40.6743 30.4206L25.2897 45.8052C25.0495 46.0448 24.7241 46.1794 24.3846 46.1794Z" fill="#FAFAFA"/>
</g>
<defs>
<clipPath id="clip0">
<rect width="59" height="59" fill="white"/>
</clipPath>
</defs>
</svg>
