<svg width="95" height="95" viewBox="0 0 95 95" fill="none" xmlns="http://www.w3.org/2000/svg">
<path d="M47.3571 0C21.2428 0 0 21.2449 0 47.3571C0 73.4694 21.2428 94.7143 47.3571 94.7143C73.4715 94.7143 94.7143 73.4694 94.7143 47.3571C94.7143 21.2449 73.4715 0 47.3571 0ZM66.1836 49.0163L38.5587 66.7752C38.235 66.9852 37.8611 67.0893 37.4911 67.0893C37.1674 67.0893 36.8398 67.0083 36.5469 66.8485C35.911 66.5016 35.5179 65.8386 35.5179 65.1161V29.5982C35.5179 28.8756 35.911 28.2126 36.5469 27.8658C37.1713 27.5228 37.9536 27.5439 38.5587 27.939L66.1836 45.698C66.7464 46.0602 67.0893 46.6866 67.0893 47.3571C67.0893 48.0277 66.7464 48.6539 66.1836 49.0163Z" fill="#36CF00"/>
</svg>
