<svg width="59" height="59" viewBox="0 0 59 59" fill="none" xmlns="http://www.w3.org/2000/svg">
<g opacity="0.4" clip-path="url(#clip0)">
<path d="M29.5025 59C45.795 58.9986 59.0014 45.7898 59 29.4975C58.9986 13.2051 45.7898 -0.00131989 29.4975 0C13.2061 0.00144196 0 13.2087 0 29.5C0.0183907 45.7858 13.2168 58.9831 29.5025 59Z" fill="black"/>
<path d="M34.6154 12.8205C35.3234 12.8192 35.8984 13.3923 35.8997 14.1003C35.9003 14.4417 35.7648 14.7692 35.5231 15.0103L21.041 29.4872L35.5231 43.964C36.0149 44.4733 36.0008 45.2849 35.4916 45.7769C34.9947 46.2567 34.2071 46.2567 33.7103 45.7769L18.3257 30.3923C17.8252 29.8917 17.8252 29.0801 18.3257 28.5794L33.7103 13.1948C33.9505 12.9551 34.2759 12.8205 34.6154 12.8205Z" fill="#FAFAFA"/>
</g>
<defs>
<clipPath id="clip0">
<rect width="59" height="59" fill="white" transform="translate(59 59) rotate(-180)"/>
</clipPath>
</defs>
</svg>
